# xmcd
#
# Track frame offsets: 
#        150
#        11504
#        28147
#        47819
#        61426
#        75793
#        90783
#        99396
#        118588
#        132542
#
# Disc length: 1975 seconds
#
# Revision: 0
# Processed by: cddbd v1.5.2PL0 Copyright (c) Steve Scherf et al.
# Submitted via: ExactAudioCopy v1.0b1
#
DISCID=7107b50a
DTITLE=David Allan Coe - Texas Moon
DYEAR=1977
DGENRE=Country
TTITLE0=Got You On My Mind
TTITLE1=These Days
TTITLE2=A Satisfied Mind
TTITLE3=Why You Been Gone So Long
TTITLE4=Why Me Lord
TTITLE5=Mary Magdeline
TTITLE6=Fuzzy Was An Outlaw
TTITLE7=That Old Time Feeling
TTITLE8=Ride Me Down Easy
TTITLE9=Give My Love To Rose
EXTD=
EXTT0=
EXTT1=
EXTT2=
EXTT3=
EXTT4=
EXTT5=
EXTT6=
EXTT7=
EXTT8=
EXTT9=
PLAYORDER=
